<mxfile host="app.diagrams.net" modified="2020-08-30T06:51:51.998Z" agent="5.0 (Windows NT 10.0; Win64; x64) AppleWebKit/537.36 (KHTML, like Gecko) Chrome/85.0.4183.83 Safari/537.36 Edg/85.0.564.41" etag="HLgg7DJeSAkhDaQvc137" version="13.6.5" type="github">
  <diagram id="C5RBs43oDa-KdzZeNtuy" name="Page-1">
    <mxGraphModel dx="1273" dy="2525" grid="1" gridSize="10" guides="1" tooltips="1" connect="1" arrows="1" fold="1" page="1" pageScale="1" pageWidth="827" pageHeight="1169" math="0" shadow="0">
      <root>
        <mxCell id="WIyWlLk6GJQsqaUBKTNV-0" />
        <mxCell id="WIyWlLk6GJQsqaUBKTNV-1" parent="WIyWlLk6GJQsqaUBKTNV-0" />
        <mxCell id="WIyWlLk6GJQsqaUBKTNV-2" value="" style="rounded=0;html=1;jettySize=auto;orthogonalLoop=1;fontSize=11;endArrow=block;endFill=0;endSize=8;strokeWidth=1;shadow=0;labelBackgroundColor=none;edgeStyle=orthogonalEdgeStyle;entryX=0.5;entryY=0;entryDx=0;entryDy=0;" parent="WIyWlLk6GJQsqaUBKTNV-1" source="WIyWlLk6GJQsqaUBKTNV-3" target="7z52nYvLWjGJctrU_4ao-3" edge="1">
          <mxGeometry relative="1" as="geometry">
            <mxPoint x="300" y="240" as="targetPoint" />
          </mxGeometry>
        </mxCell>
        <mxCell id="WIyWlLk6GJQsqaUBKTNV-3" value="registerApplication" style="rounded=1;whiteSpace=wrap;html=1;fontSize=12;glass=0;strokeWidth=1;shadow=0;" parent="WIyWlLk6GJQsqaUBKTNV-1" vertex="1">
          <mxGeometry x="240" y="80" width="120" height="40" as="geometry" />
        </mxCell>
        <mxCell id="7z52nYvLWjGJctrU_4ao-1" style="edgeStyle=orthogonalEdgeStyle;rounded=0;orthogonalLoop=1;jettySize=auto;html=1;exitX=0.5;exitY=1;exitDx=0;exitDy=0;" edge="1" parent="WIyWlLk6GJQsqaUBKTNV-1">
          <mxGeometry relative="1" as="geometry">
            <mxPoint x="800" y="910" as="sourcePoint" />
            <mxPoint x="800" y="910" as="targetPoint" />
          </mxGeometry>
        </mxCell>
        <mxCell id="7z52nYvLWjGJctrU_4ao-2" value="把app push到apps数组里, 并设置初始status = UNLOADED，设置全局tag started = false" style="text;html=1;strokeColor=none;fillColor=none;align=center;verticalAlign=middle;whiteSpace=wrap;rounded=0;" vertex="1" parent="WIyWlLk6GJQsqaUBKTNV-1">
          <mxGeometry x="370" y="90" width="250" height="20" as="geometry" />
        </mxCell>
        <mxCell id="7z52nYvLWjGJctrU_4ao-7" style="edgeStyle=orthogonalEdgeStyle;rounded=0;orthogonalLoop=1;jettySize=auto;html=1;entryX=0.5;entryY=0;entryDx=0;entryDy=0;" edge="1" parent="WIyWlLk6GJQsqaUBKTNV-1" source="7z52nYvLWjGJctrU_4ao-3" target="7z52nYvLWjGJctrU_4ao-5">
          <mxGeometry relative="1" as="geometry" />
        </mxCell>
        <mxCell id="7z52nYvLWjGJctrU_4ao-3" value="reroute" style="rounded=1;whiteSpace=wrap;html=1;" vertex="1" parent="WIyWlLk6GJQsqaUBKTNV-1">
          <mxGeometry x="240" y="250" width="120" height="60" as="geometry" />
        </mxCell>
        <mxCell id="7z52nYvLWjGJctrU_4ao-4" value="路由发生变化时执行，首次加载时默认执行一次" style="text;html=1;strokeColor=none;fillColor=none;align=center;verticalAlign=middle;whiteSpace=wrap;rounded=0;" vertex="1" parent="WIyWlLk6GJQsqaUBKTNV-1">
          <mxGeometry x="204" y="210" width="90" height="20" as="geometry" />
        </mxCell>
        <mxCell id="7z52nYvLWjGJctrU_4ao-9" style="edgeStyle=orthogonalEdgeStyle;rounded=0;orthogonalLoop=1;jettySize=auto;html=1;entryX=1;entryY=0.5;entryDx=0;entryDy=0;" edge="1" parent="WIyWlLk6GJQsqaUBKTNV-1" source="7z52nYvLWjGJctrU_4ao-5" target="7z52nYvLWjGJctrU_4ao-8">
          <mxGeometry relative="1" as="geometry" />
        </mxCell>
        <mxCell id="7z52nYvLWjGJctrU_4ao-12" style="edgeStyle=orthogonalEdgeStyle;rounded=0;orthogonalLoop=1;jettySize=auto;html=1;" edge="1" parent="WIyWlLk6GJQsqaUBKTNV-1" source="7z52nYvLWjGJctrU_4ao-5">
          <mxGeometry relative="1" as="geometry">
            <mxPoint x="300" y="580" as="targetPoint" />
          </mxGeometry>
        </mxCell>
        <mxCell id="7z52nYvLWjGJctrU_4ao-5" value="判断是否started" style="rhombus;whiteSpace=wrap;html=1;" vertex="1" parent="WIyWlLk6GJQsqaUBKTNV-1">
          <mxGeometry x="260" y="400" width="80" height="80" as="geometry" />
        </mxCell>
        <mxCell id="7z52nYvLWjGJctrU_4ao-25" style="edgeStyle=orthogonalEdgeStyle;rounded=0;orthogonalLoop=1;jettySize=auto;html=1;entryX=0.5;entryY=1;entryDx=0;entryDy=0;" edge="1" parent="WIyWlLk6GJQsqaUBKTNV-1" source="7z52nYvLWjGJctrU_4ao-8" target="7z52nYvLWjGJctrU_4ao-23">
          <mxGeometry relative="1" as="geometry" />
        </mxCell>
        <mxCell id="7z52nYvLWjGJctrU_4ao-8" value="loadApps()" style="rounded=1;whiteSpace=wrap;html=1;" vertex="1" parent="WIyWlLk6GJQsqaUBKTNV-1">
          <mxGeometry x="40" y="410" width="120" height="60" as="geometry" />
        </mxCell>
        <mxCell id="7z52nYvLWjGJctrU_4ao-10" value="false" style="text;html=1;strokeColor=none;fillColor=none;align=center;verticalAlign=middle;whiteSpace=wrap;rounded=0;" vertex="1" parent="WIyWlLk6GJQsqaUBKTNV-1">
          <mxGeometry x="200" y="420" width="40" height="20" as="geometry" />
        </mxCell>
        <mxCell id="7z52nYvLWjGJctrU_4ao-31" style="edgeStyle=orthogonalEdgeStyle;rounded=0;orthogonalLoop=1;jettySize=auto;html=1;entryX=0.5;entryY=0;entryDx=0;entryDy=0;" edge="1" parent="WIyWlLk6GJQsqaUBKTNV-1" source="7z52nYvLWjGJctrU_4ao-11" target="7z52nYvLWjGJctrU_4ao-30">
          <mxGeometry relative="1" as="geometry" />
        </mxCell>
        <mxCell id="7z52nYvLWjGJctrU_4ao-11" value="performAppChange()" style="rounded=1;whiteSpace=wrap;html=1;" vertex="1" parent="WIyWlLk6GJQsqaUBKTNV-1">
          <mxGeometry x="240" y="585" width="120" height="60" as="geometry" />
        </mxCell>
        <mxCell id="7z52nYvLWjGJctrU_4ao-15" value="true" style="text;html=1;strokeColor=none;fillColor=none;align=center;verticalAlign=middle;whiteSpace=wrap;rounded=0;" vertex="1" parent="WIyWlLk6GJQsqaUBKTNV-1">
          <mxGeometry x="300" y="510" width="40" height="20" as="geometry" />
        </mxCell>
        <mxCell id="7z52nYvLWjGJctrU_4ao-19" value="&lt;font style=&quot;font-size: 16px&quot;&gt;Utils类&lt;/font&gt;&lt;br&gt;&lt;br&gt;&lt;br&gt;&lt;br&gt;&lt;br&gt;&lt;br&gt;&lt;br&gt;&lt;br&gt;&lt;br&gt;&lt;br&gt;&lt;br&gt;&lt;br&gt;&lt;br&gt;&lt;br&gt;&lt;br&gt;" style="shape=card;whiteSpace=wrap;html=1;" vertex="1" parent="WIyWlLk6GJQsqaUBKTNV-1">
          <mxGeometry x="154" y="-220" width="520" height="250" as="geometry" />
        </mxCell>
        <mxCell id="7z52nYvLWjGJctrU_4ao-20" value="getAppChanges()&lt;br&gt;return {toLoadApps, toMountApps, toUnmountApps}" style="ellipse;whiteSpace=wrap;html=1;" vertex="1" parent="WIyWlLk6GJQsqaUBKTNV-1">
          <mxGeometry x="314" y="-160" width="120" height="130" as="geometry" />
        </mxCell>
        <mxCell id="7z52nYvLWjGJctrU_4ao-21" value="isActive()&lt;br&gt;app.status === MOUNTED" style="ellipse;whiteSpace=wrap;html=1;" vertex="1" parent="WIyWlLk6GJQsqaUBKTNV-1">
          <mxGeometry x="174" y="-160" width="120" height="130" as="geometry" />
        </mxCell>
        <mxCell id="7z52nYvLWjGJctrU_4ao-22" value="Lifecycles&lt;br&gt;doBootstrap()&lt;br&gt;doLoad()&lt;br&gt;doMount()&lt;br&gt;doUnmount()&lt;br&gt;...&lt;br&gt;..." style="ellipse;whiteSpace=wrap;html=1;" vertex="1" parent="WIyWlLk6GJQsqaUBKTNV-1">
          <mxGeometry x="494" y="-170" width="120" height="140" as="geometry" />
        </mxCell>
        <mxCell id="7z52nYvLWjGJctrU_4ao-26" style="edgeStyle=orthogonalEdgeStyle;rounded=0;orthogonalLoop=1;jettySize=auto;html=1;entryX=0;entryY=0.5;entryDx=0;entryDy=0;" edge="1" parent="WIyWlLk6GJQsqaUBKTNV-1" source="7z52nYvLWjGJctrU_4ao-23" target="7z52nYvLWjGJctrU_4ao-3">
          <mxGeometry relative="1" as="geometry" />
        </mxCell>
        <mxCell id="7z52nYvLWjGJctrU_4ao-23" value="start()" style="rounded=1;whiteSpace=wrap;html=1;" vertex="1" parent="WIyWlLk6GJQsqaUBKTNV-1">
          <mxGeometry x="40" y="250" width="120" height="60" as="geometry" />
        </mxCell>
        <mxCell id="7z52nYvLWjGJctrU_4ao-27" value="started = true" style="text;html=1;strokeColor=none;fillColor=none;align=center;verticalAlign=middle;whiteSpace=wrap;rounded=0;" vertex="1" parent="WIyWlLk6GJQsqaUBKTNV-1">
          <mxGeometry x="160" y="280" width="80" height="20" as="geometry" />
        </mxCell>
        <mxCell id="7z52nYvLWjGJctrU_4ao-29" value="调用doLoad(),把子应用暴露出的mount unmount方法挂载到app上" style="text;html=1;strokeColor=none;fillColor=none;align=center;verticalAlign=middle;whiteSpace=wrap;rounded=0;" vertex="1" parent="WIyWlLk6GJQsqaUBKTNV-1">
          <mxGeometry x="40" y="470" width="120" height="60" as="geometry" />
        </mxCell>
        <mxCell id="7z52nYvLWjGJctrU_4ao-33" style="edgeStyle=orthogonalEdgeStyle;rounded=0;orthogonalLoop=1;jettySize=auto;html=1;entryX=0.5;entryY=0;entryDx=0;entryDy=0;" edge="1" parent="WIyWlLk6GJQsqaUBKTNV-1" source="7z52nYvLWjGJctrU_4ao-30" target="7z52nYvLWjGJctrU_4ao-32">
          <mxGeometry relative="1" as="geometry" />
        </mxCell>
        <mxCell id="7z52nYvLWjGJctrU_4ao-30" value="getAppChanges()" style="rounded=1;whiteSpace=wrap;html=1;" vertex="1" parent="WIyWlLk6GJQsqaUBKTNV-1">
          <mxGeometry x="240" y="700" width="120" height="60" as="geometry" />
        </mxCell>
        <mxCell id="7z52nYvLWjGJctrU_4ao-32" value="依次unmount, load和mount" style="rounded=1;whiteSpace=wrap;html=1;" vertex="1" parent="WIyWlLk6GJQsqaUBKTNV-1">
          <mxGeometry x="240" y="830" width="120" height="60" as="geometry" />
        </mxCell>
        <mxCell id="7z52nYvLWjGJctrU_4ao-34" value="{appsToLoad, appsToMount, appsToUnmount}" style="text;html=1;strokeColor=none;fillColor=none;align=center;verticalAlign=middle;whiteSpace=wrap;rounded=0;" vertex="1" parent="WIyWlLk6GJQsqaUBKTNV-1">
          <mxGeometry x="310" y="790" width="130" height="20" as="geometry" />
        </mxCell>
        <mxCell id="7z52nYvLWjGJctrU_4ao-35" value="hashChange&lt;br&gt;popState" style="whiteSpace=wrap;html=1;aspect=fixed;" vertex="1" parent="WIyWlLk6GJQsqaUBKTNV-1">
          <mxGeometry x="690" y="240" width="80" height="80" as="geometry" />
        </mxCell>
        <mxCell id="7z52nYvLWjGJctrU_4ao-37" style="edgeStyle=orthogonalEdgeStyle;rounded=0;orthogonalLoop=1;jettySize=auto;html=1;entryX=0;entryY=0.5;entryDx=0;entryDy=0;" edge="1" parent="WIyWlLk6GJQsqaUBKTNV-1" source="7z52nYvLWjGJctrU_4ao-36" target="7z52nYvLWjGJctrU_4ao-35">
          <mxGeometry relative="1" as="geometry" />
        </mxCell>
        <mxCell id="7z52nYvLWjGJctrU_4ao-38" style="edgeStyle=orthogonalEdgeStyle;rounded=0;orthogonalLoop=1;jettySize=auto;html=1;entryX=1;entryY=0.5;entryDx=0;entryDy=0;" edge="1" parent="WIyWlLk6GJQsqaUBKTNV-1" source="7z52nYvLWjGJctrU_4ao-36" target="7z52nYvLWjGJctrU_4ao-3">
          <mxGeometry relative="1" as="geometry" />
        </mxCell>
        <mxCell id="7z52nYvLWjGJctrU_4ao-36" value="subScription" style="rounded=1;whiteSpace=wrap;html=1;" vertex="1" parent="WIyWlLk6GJQsqaUBKTNV-1">
          <mxGeometry x="450" y="250" width="120" height="60" as="geometry" />
        </mxCell>
      </root>
    </mxGraphModel>
  </diagram>
</mxfile>
